<svg width="112" height="112" viewBox="0 0 112 112" fill="none" xmlns="http://www.w3.org/2000/svg">
<path d="M102.527 85.54C102.527 87.22 102.153 88.9467 101.36 90.6267C100.567 92.3067 99.5402 93.8933 98.1868 95.3867C95.9002 97.9067 93.3802 99.7267 90.5335 100.893C87.7335 102.06 84.7002 102.667 81.4335 102.667C76.6735 102.667 71.5868 101.547 66.2202 99.26C60.8535 96.9733 55.4868 93.8933 50.1668 90.02C44.8002 86.1 39.7135 81.76 34.8602 76.9533C30.0535 72.1 25.7135 67.0133 21.8402 61.6933C18.0135 56.3733 14.9335 51.0533 12.6935 45.78C10.4535 40.46 9.3335 35.3733 9.3335 30.52C9.3335 27.3467 9.8935 24.3133 11.0135 21.5133C12.1335 18.6667 13.9068 16.0533 16.3802 13.72C19.3668 10.78 22.6335 9.33333 26.0868 9.33333C27.3935 9.33333 28.7002 9.61333 29.8668 10.1733C31.0802 10.7333 32.1535 11.5733 32.9935 12.7867L43.8202 28.0467C44.6602 29.2133 45.2668 30.2867 45.6868 31.3133C46.1068 32.2933 46.3402 33.2733 46.3402 34.16C46.3402 35.28 46.0135 36.4 45.3602 37.4733C44.7535 38.5467 43.8668 39.6667 42.7468 40.7867L39.2002 44.4733C38.6868 44.9867 38.4535 45.5933 38.4535 46.34C38.4535 46.7133 38.5002 47.04 38.5935 47.4133C38.7335 47.7867 38.8735 48.0667 38.9668 48.3467C39.8068 49.8867 41.2535 51.8933 43.3068 54.32C45.4068 56.7467 47.6468 59.22 50.0735 61.6933C52.5935 64.1667 55.0202 66.4533 57.4935 68.5533C59.9202 70.6067 61.9268 72.0067 63.5135 72.8467C63.7468 72.94 64.0268 73.08 64.3535 73.22C64.7268 73.36 65.1002 73.4067 65.5202 73.4067C66.3135 73.4067 66.9202 73.1267 67.4335 72.6133L70.9802 69.1133C72.1468 67.9467 73.2668 67.06 74.3402 66.5C75.4135 65.8467 76.4868 65.52 77.6535 65.52C78.5402 65.52 79.4735 65.7067 80.5002 66.1267C81.5268 66.5467 82.6002 67.1533 83.7668 67.9467L99.2135 78.9133C100.427 79.7533 101.267 80.7333 101.78 81.9C102.247 83.0667 102.527 84.2333 102.527 85.54Z" stroke="#292D32" stroke-width="4" stroke-miterlimit="10"/>
<path d="M86.3333 42C86.3333 39.2 84.14 34.9067 80.8733 31.4067C77.8867 28.1867 73.92 25.6667 70 25.6667" stroke="#292D32" stroke-width="4" stroke-linecap="round" stroke-linejoin="round"/>
<path d="M102.667 42C102.667 23.94 88.06 9.33333 70 9.33333" stroke="#292D32" stroke-width="4" stroke-linecap="round" stroke-linejoin="round"/>
</svg>
