<svg width="172" height="172" viewBox="0 0 172 172" fill="none" xmlns="http://www.w3.org/2000/svg">
<path d="M95.1302 14.6355L103.046 5.80649L106.686 17.0917L107.535 19.7234L109.768 18.0933L119.346 11.1029L120.561 22.8983L120.844 25.649L123.367 24.5189L134.19 19.6727L132.925 31.4628L132.63 34.2122L135.333 33.6315L146.927 31.1413L143.238 42.4108L142.378 45.0388L145.143 45.0329L157.001 45.0075L151.05 55.2638L149.663 57.6556L152.369 58.2247L163.972 60.6652L156.019 69.4602L154.164 71.5112L156.693 72.6305L167.536 77.4302L157.928 84.3794L155.687 86L157.928 87.6206L167.536 94.5698L156.693 99.3695L154.164 100.489L156.019 102.54L163.972 111.335L152.369 113.775L149.663 114.344L151.05 116.736L157.001 126.993L145.143 126.967L142.378 126.961L143.238 129.589L146.927 140.859L135.333 138.368L132.63 137.788L132.925 140.537L134.19 152.327L123.367 147.481L120.844 146.351L120.561 149.102L119.346 160.897L109.768 153.907L107.535 152.277L106.686 154.908L103.046 166.194L95.1302 157.364L93.2843 155.306L91.9068 157.703L86 167.985L80.0932 157.703L78.7157 155.306L76.8698 157.364L68.9543 166.194L65.3143 154.908L64.4654 152.277L62.2318 153.907L52.6537 160.897L51.4395 149.102L51.1563 146.351L48.6326 147.481L37.8104 152.327L39.0751 140.537L39.3701 137.788L36.6665 138.368L25.0732 140.859L28.7616 129.589L29.6218 126.961L26.8566 126.967L14.9988 126.993L20.9497 116.736L22.3375 114.344L19.6315 113.775L8.02756 111.335L15.9808 102.54L17.8355 100.489L15.307 99.3695L4.46405 94.5698L14.0721 87.6206L16.3127 86L14.0721 84.3794L4.46405 77.4302L15.307 72.6305L17.8355 71.5112L15.9808 69.4602L8.02756 60.6652L19.6315 58.2247L22.3375 57.6556L20.9497 55.2638L14.9988 45.0075L26.8566 45.0329L29.6218 45.0388L28.7616 42.4108L25.0732 31.1413L36.6665 33.6315L39.3701 34.2122L39.0751 31.4628L37.8104 19.6727L48.6326 24.5189L51.1563 25.649L51.4395 22.8983L52.6537 11.1029L62.2318 18.0933L64.4654 19.7234L65.3143 17.0917L68.9543 5.80649L76.8698 14.6355L78.7157 16.6944L80.0932 14.2967L86 4.01492L91.9068 14.2967L93.2843 16.6944L95.1302 14.6355Z" fill="#0055FF" stroke="white" stroke-width="4"/>
</svg>
