<svg width="105" height="105" viewBox="0 0 105 105" fill="none" xmlns="http://www.w3.org/2000/svg">
<path d="M78.75 82.5125H75.425C71.925 82.5125 68.6 83.8687 66.15 86.3187L58.6686 93.7125C55.2561 97.0813 49.7001 97.0813 46.2876 93.7125L38.8062 86.3187C36.3562 83.8687 32.9875 82.5125 29.5312 82.5125H26.25C18.9875 82.5125 13.125 76.6938 13.125 69.5188V21.7437C13.125 14.5687 18.9875 8.75 26.25 8.75H78.75C86.0125 8.75 91.875 14.5687 91.875 21.7437V69.475C91.875 76.65 86.0125 82.5125 78.75 82.5125Z" stroke="#292D32" stroke-width="4" stroke-miterlimit="10" stroke-linecap="round" stroke-linejoin="round"/>
<path d="M52.8063 39.1562C52.6313 39.1562 52.3687 39.1562 52.1499 39.1562C47.5562 38.9812 43.9249 35.2625 43.9249 30.625C43.9249 25.9 47.7312 22.0938 52.4562 22.0938C57.1812 22.0938 60.9875 25.9437 60.9875 30.625C61.0313 35.2625 57.4001 39.025 52.8063 39.1562Z" stroke="#292D32" stroke-width="4" stroke-linecap="round" stroke-linejoin="round"/>
<path d="M40.4688 52.325C34.65 56.2187 34.65 62.5624 40.4688 66.4562C47.075 70.8749 57.925 70.8749 64.5313 66.4562C70.35 62.5624 70.35 56.2187 64.5313 52.325C57.925 47.95 47.1188 47.95 40.4688 52.325Z" stroke="#292D32" stroke-width="4" stroke-linecap="round" stroke-linejoin="round"/>
</svg>
