<svg width="134" height="134" viewBox="0 0 134 134" fill="none" xmlns="http://www.w3.org/2000/svg">
<path d="M12.7856 43.4383V97.7642C12.7856 108.373 20.3231 112.728 29.4798 107.479L42.6006 99.9975C45.4481 98.3783 50.194 98.2108 53.1531 99.7183L82.4656 114.402C85.4248 115.854 90.1706 115.743 93.0181 114.123L117.194 100.277C120.265 98.49 122.833 94.135 122.833 90.5617V36.2358C122.833 25.6275 115.296 21.2725 106.139 26.5208L93.0181 34.0025C90.1706 35.6217 85.4248 35.7892 82.4656 34.2817L53.1531 19.6533C50.194 18.2017 45.4481 18.3133 42.6006 19.9325L18.4248 33.7792C15.2981 35.5658 12.7856 39.9208 12.7856 43.4383Z" stroke="#292D32" stroke-width="4" stroke-linecap="round" stroke-linejoin="round"/>
<path d="M47.7935 22.3333V94.9167" stroke="#292D32" stroke-width="4" stroke-linecap="round" stroke-linejoin="round"/>
<path d="M87.8257 36.9617V111.667" stroke="#292D32" stroke-width="4" stroke-linecap="round" stroke-linejoin="round"/>
</svg>
